<svg xmlns="http://www.w3.org/2000/svg" width="40" height="40" viewBox="0 0 40 40">
    <g fill="#F35A60" fill-rule="nonzero">
        <path d="M17.2 23.152c-.129-.086-.26-.178-.4-.272a4.528 4.528 0 0 0-1.266-.193h-.053c-2.011 0-3.775 1.217-3.775 2.606 0 1.512 1.512 2.693 3.44 2.693 2.543 0 3.832-.878 3.832-2.606 0-.163-.02-.333-.06-.503-.172-.67-.788-1.089-1.718-1.725zM16.978 17.332c.492-.562.71-1.483.581-2.462-.228-1.748-1.478-3.204-2.783-3.242l-.052-.002c-.462 0-.874.19-1.186.55-.486.554-.692 1.432-.564 2.409.228 1.747 1.505 3.257 2.783 3.297h.018c.483 0 .888-.19 1.203-.55z"/>
        <path d="M19.86 0C8.91 0 0 8.91 0 19.86c0 10.951 8.91 19.862 19.86 19.862 10.951 0 19.862-8.91 19.862-19.861S30.812 0 19.86 0zm-2.289 29.532a8.7 8.7 0 0 1-2.414.326c-.949 0-1.861-.108-2.711-.324-1.646-.415-2.862-1.202-3.43-2.216a2.821 2.821 0 0 1-.369-1.39c0-.498.12-1.004.355-1.505.901-1.921 3.278-3.214 5.91-3.214h.076a2.346 2.346 0 0 1-.317-1.178c0-.204.027-.412.082-.624-2.762-.062-4.828-2.085-4.828-4.751 0-1.882 1.505-3.717 3.657-4.458a5.967 5.967 0 0 1 1.946-.336h5.906c.2 0 .379.13.441.322.063.19-.006.4-.169.518l-1.32.956a.472.472 0 0 1-.273.086h-.473c.61.732.968 1.776.968 2.948 0 1.294-.654 2.517-1.846 3.449-.92.717-.956.914-.956 1.323.012.225.652.958 1.36 1.458 1.647 1.165 2.26 2.308 2.26 4.216-.001 1.992-1.514 3.714-3.855 4.394zm13.337-10.13a.465.465 0 0 1-.464.464h-3.356v3.358a.465.465 0 0 1-.462.464h-.956a.465.465 0 0 1-.466-.464v-3.358H21.85a.463.463 0 0 1-.464-.464v-.954c0-.256.208-.466.464-.466h3.354v-3.354c0-.257.208-.464.466-.464h.956c.253 0 .462.207.462.464v3.354h3.355c.255 0 .464.208.464.464v.956h.001z"/>
    </g>
</svg>
